<svg id="Layer_7" data-name="Layer 7" xmlns="http://www.w3.org/2000/svg" viewBox="0 0 1304.61 1298.04">
  <defs>
    <style>
      .cls-1 {
        opacity: 0.9;
      }

      .cls-2, .cls-3, .cls-4, .cls-5, .cls-6, .cls-7, .cls-8, .cls-9 {
        opacity: 0.8;
      }

      .cls-4 {
        fill: #2e2c2c;
      }

      .cls-5 {
        fill: #7f7c7c;
      }

      .cls-6 {
        fill: #3e0000;
      }

      .cls-7 {
        fill: #c7481b;
      }

      .cls-8 {
        fill: #f47a44;
      }

      .cls-9 {
        fill: #fbb895;
      }
    </style>
  </defs>
  <g class="cls-1">
    <g class="cls-2">
      <g class="cls-2">
        <path class="cls-3" d="M1214.22,739.86c2.45,98.77,6.7,186.43,7.23,285.64.08,14.18-.79,29.15-1.66,44.08-.44,5.73-1,10.87-1.55,15.64-.33,4.37-.64,8.58-.94,12.68s-.65,8-1,11.93c-1.27,15.36-2.46,28.69-3.18,44.38-.53,15.17-1.05,30.37-1.59,45.94l-69.72-72.72-8.34-8.68-1.76-1.84-1.26-1.35-2.52-2.68-10.1-10.74-20.32-21.5q-40.79-43-82.59-86-83.57-86-170.18-170.93C791.45,771,739.5,718.92,688.06,667L521.46,498.49l97.92-36,81.2-30q81.52-30.27,164.83-62.14c143.38-54.9,278.76-109.54,420-165.21,44.35-16.94,85-32.07,130.73-47,19.18-5.66,49.26-12.07,29.94-1.81s-45.22,22.8-70.43,34.09c-114.83,51-210.48,96.43-328.18,148-121.5,53.37-235.71,86-356.86,130.11-24.78,9.15-48.7,18.19-72,27.17l-17.4,6.72-8.62,3.35-1.85.72-.62.27-1.22.53c-3.21,1.4-6.13,2.73-8.72,3.95,1.89,1.65,3.68,3.2,5.36,4.63L588,518l.59.49.29.24.14.11.28.26,4.53,4.34,36.35,34.74c24.3,23.24,48.84,46.79,74.09,71.37,22.59,22.91,44,48,54.09,62.73,21.78,29.67,9.87,23.42,50.47,64.12,53.34,52.41,102,95,157.81,150.45,40.92,41.13,79.38,80.51,117.76,119.41,19.2,19.45,38.38,38.78,57.83,58.14l13.26,13.14q4,3.87,8,7.74c5.27,5.09,10.45,10,15.35,14.56-.21-9.26-.51-18.33-.93-26.69l-.28-4.73-.14-2.28,0-.56,0-.28v-.55l-.06-2.45-.45-19.61q-.4-19.61-.8-39.15-.73-39.09-.91-77.74c-.16-51.47.76-102.07,3.82-150.92,4.79-78.8,14-129.34,20.77-195.61,4.49-46.51,5.13-104,7.21-159.12.41-11.06,2.27-19.76,3.63-31.61,6.5,62.09,7.94,153.39,5.52,233.73-.41,11.07-1.81,15.75-2.72,23.66C1212.07,691.86,1213.62,715.44,1214.22,739.86Z" transform="translate(-147.7 -150.98)"/>
        <path class="cls-3" d="M1210.92,721.31c2.46,98.8,6.7,186.46,7.23,285.67.08,14.18-.79,29.11-1.66,44.07-.89,11.43-2.14,20.51-3.34,29.1l-.45,3.2-.22,1.59,0,.39,0,.2,0,.33-.11,1.35c-.29,3.52-.58,7-.87,10.59-.54,7-1,14-1.38,21.45-.83,23.4-1.67,46.89-2.53,70.87l-61.33-64.06-7.33-7.64-3.64-3.79-2.46-2.61L1123,1101.7l-19.57-20.64q-39.29-41.31-79.52-82.62Q943.5,915.88,860.33,834.31C804.26,778.94,750.05,724.63,696.51,670.7l-169.43-171,87.19-32.17,75.16-27.91q75.57-28.2,153.35-58c143.47-54.93,278.85-109.57,420.08-165.24,44.37-16.94,85-32.08,130.74-47,19.12-5.63,71.53-22.84,52.21-12.59s-45.25,22.81-70.43,34.09C1260.54,242,1164.9,287.4,1047.13,339c-121.45,53.35-235.65,86-356.83,130.1-24.71,9.12-48.55,18.14-71.81,27.08l-17.34,6.7-8.6,3.34-1.07.42-.53.21-.15.06-.59.26-1.16.5c-3.06,1.35-5.84,2.62-8.28,3.78q2.73,2.38,5.16,4.42l2.33,1.95.56.46.27.23.14.11.07.06.26.24,4.54,4.35L630.52,558c24.36,23.29,48.94,46.88,74.24,71.51,22.59,22.92,44,48,54.1,62.76,21.77,29.66,9.32,22.85,49.94,63.58,53.38,52.44,102,95,157.81,150.45,41,41.18,79.46,80.59,117.88,119.52,19.22,19.47,38.41,38.82,57.89,58.2l13.25,13.13c2.58,2.52,5.18,5,7.78,7.56,5.15,5,10.21,9.76,15,14.18-.21-9-.51-17.79-.93-25.89l-.28-4.61-.14-2.21,0-.55,0-.27c0-.11,0-.12,0-.38l-.06-2.45-.45-19.62q-.39-19.6-.8-39.15c-.48-26.06-.83-52-.91-77.73-.15-51.46.76-102.05,3.82-150.93,4.8-78.84,14-129.36,20.77-195.62,4.5-46.54,5.14-104,7.21-159.13.42-11,2.27-19.75,3.63-31.55,6.5,62,5,134.48,2.58,214.86-.42,11-1.81,15.76-2.72,23.67C1208.76,673.35,1210.32,696.93,1210.92,721.31Z" transform="translate(-147.7 -150.98)"/>
        <path class="cls-4" d="M1204.53,690.71c2.45,98.82,6.7,186.47,7.23,285.69.08,14.18-.79,29.11-1.67,44.06-1.77,22.88-5,36.32-6.34,55.22l-.51,9.69q-.27,6.56-.53,13.1-.54,12.69-1.06,25.33-1,23.67-2,47.1L1154.5,1123l-19.57-20.86-17.21-18.42c-23-24.52-46-48.91-69.38-73.33-46.76-48.84-94.83-97.79-146.19-148.17-63.82-63-123.92-123-183-182.11L542.34,503l58.43-21.87L659.83,459c39.76-15,80.34-30.44,122-46.43,143.38-54.9,278.8-109.56,420.05-165.23,44.33-16.93,107.22-42.84,153-57.73,19.17-5.65,93.84-33.62,74.52-23.36S1384.08,189,1359,200.28c-114.88,51.07-210.48,96.43-328.25,148-121.48,53.36-235.66,86-356.85,130.11C652.31,486.33,631.42,494.2,611,502l-15.21,5.85L592,509.33l-.13.05,0,0-.08,0-.17.07-.34.15-1.29.6c-1.68.79-3.17,1.53-4.41,2.19,1.35,1.12,2.61,2.12,3.73,3l1.61,1.2c-.38-.45,2.05,1.91,3.55,3.34l5,4.76,39.73,38c26.55,25.37,53.31,51,80.92,77.9,22.65,23,44,48,54.13,62.77C795.93,733,779,721,819.62,761.67c53.32,52.4,102,95,157.79,150.43,39.53,39.74,76.76,77.84,113.86,115.45,18.55,18.81,37.07,37.5,55.82,56.21l11.32,11.26,5.73,5.55c3.78,3.65,7.5,7.15,11,10.33-.23-8.5-.6-16.82-1.15-24l-.14-1.64-.12-4.67-.23-9.81q-.23-9.81-.44-19.61-.4-19.59-.81-39.14c-.48-26.06-.83-52-.91-77.73-.15-51.46.76-102.05,3.82-150.91,4.79-78.89,14-129.41,20.77-195.64,4.5-46.52,5.13-104,7.21-159.17.42-11,2.27-19.71,3.62-31.56,6.51,62.12,2,115.67-.36,196-.42,11-1.82,15.79-2.72,23.67C1202.37,642.77,1203.93,666.36,1204.53,690.71Z" transform="translate(-147.7 -150.98)"/>
        <path class="cls-5" d="M1192.71,688.83c1.93,77.39,9.33,102.25,10,224.56.08,14.15-.79,29.11-1.66,44.09-1.77,22.85-5,36.32-6.35,55.22q-1.83,35.46-3.62,70.29-.84,15.67-1.68,31.25-.78,13.92-1.57,27.77l-25.32-27.39L1151,1102.15l-3.13-3.35-3.65-3.88-7.3-7.74q-29.26-30.95-59.1-61.89c-39.89-41.31-80.94-82.86-124.31-125.41C874.4,821.79,809.43,756.27,746.34,692.47c-31.54-31.9-62.64-63.33-94.72-95.76l-49.17-49.45q-11.69-11.71-23.71-23.74l-16.13-16.06,39.82-15.11,61.83-23.58C807.64,413.86,920.73,370,1062,314.33c44.39-16.95,151.78-64.39,197.53-79.29,19.16-5.64,160.57-65.93,141.25-55.67s-29.17,15.7-54.37,27c-114.8,51-197.9,90.34-315.67,141.9-121.48,53.36-242,88.37-363.26,132.53-20.39,7.52-40.19,15-59.54,22.38l-14.44,5.53-1.62.63-.32.15-.64.28-1.24.57c-1.6.74-3,1.44-4.26,2.08,1.41,1.17,2.71,2.23,3.89,3.14l1.67,1.26L600.6,526l40.94,39.14c27.34,26.13,54.9,52.53,83.37,80.24,22.65,23,44,48,54.14,62.8,21.75,29.64,16.19,18.82,56.77,59.5C889.18,820.15,926.37,861,982.2,916.5c38.74,39,75.28,76.32,111.64,113.2,18.18,18.44,36.32,36.76,54.67,55.1q5.21,5.16,10.41,10.36l5.47,5.33c3.63,3.5,7.19,6.88,10.55,10-.11-4.59-.27-9.12-.47-13.46q-.17-3.15-.34-6.34c-.06-1-.13-2-.19-3l-.11-1.46-.06-.71v-.18c0-.09,0,0,0-.29l0-1.08c-2.46-104.67-4.92-209.28,1.19-307,4.8-78.8,14-129.37,20.78-195.61,4.49-46.49,5.13-104,7.21-159.18.41-10.94,2.26-19.7,3.62-31.5,6.51,62-.9,96.87-3.31,177.16-.42,11-4.28,20.57-5.19,28.39C1201.15,533.1,1192.71,688.83,1192.71,688.83Z" transform="translate(-147.7 -150.98)"/>
      </g>
    </g>
  </g>
  <g class="cls-1">
    <g class="cls-2">
      <g class="cls-2">
        <path class="cls-6" d="M1121.83,686.76c1.94,62.88,5.23,118.69,5.73,181.85.08,9-.56,18.55-1.19,28-.09.94-.18,1.85-.26,2.73-.1,1.68-.2,3.32-.3,4.91-.21,3.18-.43,6.17-.66,9-.45,5.66-.92,10.69-1.39,15.42-.93,9.47-1.81,17.67-2.33,27.51-.37,9.55-.75,19.13-1.13,28.93l-44.62-46.87-10.62-11.12-2.62-2.74-2.16-2.28-3.21-3.44L1044.21,905q-25.83-27.51-52.39-55-53.05-54.87-108.28-108.85c-34-33.49-67-66.66-99.77-99.73L676.35,532.56,740.66,509l51.7-19.07q51.9-19.26,104.89-39.63c91.22-35.1,177.24-70.3,267-106,28.22-10.82,54.09-20.45,83.29-29.72,12.26-3.45,31.59-7.05,19.4-.22s-28.56,15.11-44.54,22.49c-72.79,33.31-133.32,63.18-208,96.75-77,34.78-150.11,54.56-227.27,82.55-15.78,5.81-31,11.58-45.84,17.32l-11.07,4.3-1.37.54-.61.24-.2.09-.8.35-1.53.68c-2,.9-3.83,1.76-5.42,2.54,2.47,2.13,4.7,4,6.63,5.5l22.78,21.58C765.31,584,781,598.89,797.1,614.5c14.36,14.6,27.76,30.79,33.94,40.42,13.42,19.34,5.52,15.68,31.35,41.6,34,33.3,65.33,60.06,100.88,95.35,26,26.2,50.47,51.32,74.88,76.11,12.2,12.39,24.4,24.7,36.79,37l6,5.89,5,4.89c3.34,3.2,6.62,6.28,9.71,9.11-.16-6-.4-11.85-.72-17.32l-.43-6.05-.11-1.42-.05-.7a9.81,9.81,0,0,1,0-1l-.18-6.24q-.32-12.48-.65-24.92c-.39-16.59-.68-33.11-.76-49.49-.18-32.76.45-65,2.69-96.07,3.51-50.16,10.36-82.31,15.36-124.5,3.32-29.6,3.74-66.2,5.23-101.28.3-7,1.68-12.58,2.69-20.12,4.94,39.53,6.12,97.66,4.4,148.8-.29,7-1.34,10-2,15.06C1120.15,656.2,1121.34,671.21,1121.83,686.76Z" transform="translate(-147.7 -150.98)"/>
        <path class="cls-7" d="M1119.33,674.94c2,62.9,5.23,118.71,5.74,181.87.07,9-.56,18.53-1.2,28.06-.33,3.63-.72,6.9-1.15,9.93-.22,1.52-.44,3-.65,4.41-.24,2.45-.47,4.84-.7,7.19-.93,9.27-1.81,17.29-2.33,26.63-.6,14.73-1.2,29.51-1.82,44.61L1078,936.34l-9.34-9.8-4.61-4.83-3.37-3.59-12.41-13.21q-24.88-26.4-50.44-52.76C963.77,817,929,782.09,893.72,747.63c-35.74-35.2-70.24-69.78-104.3-104.14l-108.86-110,57-21,47.85-17.76q48.11-18,97.59-37c91.27-35.12,177.29-70.33,267.09-106.07,28.22-10.83,54.09-20.46,83.29-29.72,12.22-3.44,45.67-14.16,33.49-7.33s-28.59,15.11-44.55,22.48c-72.8,33.32-133.31,63.19-208,96.77-77,34.77-150.08,54.54-227.25,82.55-15.74,5.79-30.91,11.54-45.7,17.27l-11,4.29-1.37.53-.54.22-.19.08-.76.33-1.46.66c-1.91.87-3.63,1.68-5.14,2.44,2.39,2,4.53,3.79,6.37,5.23l22.86,21.65c15.56,14.77,31.27,29.73,47.42,45.37,14.35,14.61,27.76,30.8,33.94,40.44,13.41,19.33,5.16,15.32,31,41.24,34,33.34,65.31,60.06,100.87,95.36,26.07,26.23,50.52,51.37,75,76.18,12.22,12.41,24.43,24.73,36.83,37.07l5.91,5.82,4.94,4.77c3.26,3.12,6.46,6.13,9.48,8.87-.17-5.8-.4-11.51-.73-16.8l-.43-5.91-.1-1.38-.06-.68,0-.33,0-.17v-.35l-.18-6.24q-.31-12.5-.64-24.93c-.39-16.59-.68-33.11-.77-49.49-.17-32.75.46-65,2.7-96.07,3.5-50.18,10.36-82.33,15.36-124.5,3.32-29.62,3.73-66.2,5.23-101.3.3-7,1.67-12.56,2.68-20.07,5,39.5,3.9,85.61,2.17,136.78-.29,7-1.34,10-2,15.06C1117.66,644.41,1118.85,659.42,1119.33,674.94Z" transform="translate(-147.7 -150.98)"/>
        <path class="cls-8" d="M1114.5,655.46c2,62.91,5.23,118.71,5.74,181.88.07,9-.56,18.52-1.2,28-.65,7.28-1.58,13.06-2.47,18.52-.45,2.74-.88,5.39-1.26,8.11-.2,1.36-.38,2.74-.54,4.15-.07.71-.15,1.42-.23,2.15l0,.55,0,.65c0,.51-.07,1-.1,1.55q-1.52,31.41-3,62.16l-28.94-31L1069.14,918,1058,906c-14.53-15.7-29.12-31.3-43.95-46.91-29.64-31.2-60.2-62.42-92.94-94.43-40.67-40.07-78.94-78.26-116.52-115.88L692,536l74.82-28.12c25.3-9.58,51.12-19.43,77.65-29.66,91.22-35.09,177.27-70.31,267.07-106,28.2-10.82,68.14-27.56,97.34-36.82,12.26-3.45,59.79-21.28,47.6-14.44S1227.87,336,1212,343.36c-72.83,33.33-133.32,63.18-208,96.77-77,34.77-150.08,54.54-227.27,82.54-13.72,5.06-27,10.08-40,15.07l-4.85,1.88-2.42.93-.26.1,0,0-.11.05-.22.1-1.65.78c-1,.51-2,1-2.7,1.42.89.72,1.72,1.36,2.48,1.92l1.08.77.49.34.12.08.06,0,0,0h0l.1.09,1.59,1.51,25.39,24.08c17,16.08,34.07,32.34,51.68,49.41,14.4,14.65,27.77,30.8,34,40.45,13.39,19.32,2.35,11.91,28.19,37.83,34,33.3,65.31,60,100.86,95.34,25.16,25.31,48.81,49.62,72.39,73.59,11.8,12,23.58,23.89,35.52,35.8l4,4,3.63,3.51c2.39,2.29,4.74,4.48,6.94,6.45-.19-5.5-.47-10.92-.88-15.63l-.23-2.15-.11-1-.06-.5,0-1.54-.36-12.48q-.32-12.48-.65-24.93-.59-24.87-.76-49.48c-.18-32.76.45-65,2.69-96.06,3.51-50.21,10.37-82.36,15.36-124.51,3.32-29.61,3.74-66.21,5.23-101.32.3-7,1.68-12.54,2.68-20.09,5,39.55,1.67,73.64,0,124.8-.3,7-1.34,10-2,15.06C1112.83,624.94,1114,640,1114.5,655.46Z" transform="translate(-147.7 -150.98)"/>
        <path class="cls-9" d="M1105.64,654.24c1.53,49.27,7.11,65.11,7.74,143,.07,9-.57,18.53-1.2,28.07-1.3,14.54-3.73,23.11-4.7,35.14q-1.32,22.4-2.63,44.38-1.2,18.48-2.37,36.76-8.14-8.92-16.28-17.84l-7.4-8.11-3.55-3.88-1.82-2-2.31-2.48q-18.54-19.8-37.47-39.56c-25.31-26.38-51.41-52.85-79.07-79.89-50.4-49.65-91.73-91.4-131.85-132l-60.24-61-31.28-31.49-24-24,62.87-24c91.22-35.1,163.14-63.19,252.94-98.94,28.24-10.83,96.32-41.77,125.53-51,12.25-3.44,102-42.58,89.81-35.75S1220,340,1204,347.37c-72.77,33.31-125.36,59.17-200,92.76-77,34.77-154.15,56.07-231.35,84.09-13,4.78-25.58,9.53-37.9,14.26-1.53.6-3.07,1.19-4.6,1.77l-1,.39-.21.09-.41.19-1.57.73c-1,.48-1.88.94-2.62,1.35.93.75,1.79,1.43,2.58,2l1.12.82.52.35a1.17,1.17,0,0,1,.15.12l.82.78,1.64,1.55,26.16,24.82c17.48,16.56,35.09,33.3,53.25,50.9,14.4,14.64,27.76,30.8,34,40.47,13.4,19.31,10.16,12.12,36,38,34,33.32,57.48,59.54,93,94.85,24.66,24.8,47.87,48.64,71,72.14l17.35,17.58,17.33,17.41c4.62,4.62,9.38,9.21,13.62,13.06-.18-5.92-.47-11.78-.94-16.76l-.22-2,0-.12v-.27l0-.78,0-1.56-.09-3.12-.36-12.49q-.31-12.48-.64-24.92c-.39-16.59-.68-33.1-.77-49.48-.18-32.76.45-65,2.69-96.07,3.51-50.16,10.37-82.34,15.37-124.5,3.32-29.59,3.73-66.2,5.23-101.33.3-7,1.67-12.53,2.68-20,4.95,39.51-.57,61.67-2.29,112.78-.3,7-3.19,13.09-3.86,18.07C1111.79,555.12,1105.64,654.24,1105.64,654.24Z" transform="translate(-147.7 -150.98)"/>
      </g>
    </g>
  </g>
  <g class="cls-1">
    <g class="cls-2">
      <g class="cls-2">
        <path class="cls-3" d="M385.78,860.14c-2.45-98.77-6.7-186.43-7.23-285.64-.08-14.18.79-29.15,1.66-44.08.44-5.73,1-10.87,1.55-15.64.33-4.37.64-8.58.94-12.68s.65-8,1-11.93c1.27-15.36,2.46-28.69,3.18-44.38.53-15.17,1.05-30.37,1.59-45.94l69.72,72.72,8.34,8.68,1.76,1.84,1.26,1.35,2.52,2.68,10.1,10.74,20.32,21.5q40.79,43,82.59,86,83.57,86,170.18,170.93C808.55,829,860.5,881.08,911.94,933l166.6,168.52-97.92,36-81.2,30q-81.52,30.27-164.83,62.14c-143.38,54.9-278.76,109.54-420,165.21-44.36,16.94-85,32.07-130.74,47-19.18,5.66-49.26,12.07-29.94,1.81s45.22-22.8,70.43-34.09c114.83-51,210.48-96.43,328.18-148,121.5-53.37,235.71-86,356.86-130.11,24.78-9.15,48.7-18.19,72-27.17l17.4-6.72,8.62-3.35,1.85-.72.62-.27,1.22-.53c3.21-1.4,6.13-2.73,8.72-4-1.89-1.65-3.68-3.2-5.36-4.63l-2.44-2-.59-.49-.29-.24-.14-.11-.28-.26-4.53-4.34-36.35-34.74c-24.3-23.24-48.84-46.79-74.09-71.37-22.59-22.91-44-48-54.09-62.73-21.78-29.67-9.87-23.42-50.47-64.12-53.34-52.41-102-95-157.81-150.45C592.49,652.06,554,612.68,515.65,573.78c-19.2-19.45-38.38-38.78-57.83-58.14L444.56,502.5q-4-3.87-8-7.74c-5.27-5.09-10.45-10-15.35-14.56.21,9.26.51,18.33.93,26.69l.28,4.73.14,2.28,0,.56,0,.28v.55l.06,2.45.45,19.61q.4,19.6.8,39.15.73,39.09.91,77.74c.16,51.47-.76,102.07-3.82,150.92-4.79,78.8-14,129.34-20.77,195.61-4.49,46.51-5.13,104-7.21,159.12-.41,11.06-2.27,19.76-3.63,31.61-6.5-62.09-7.94-153.39-5.52-233.73.41-11.07,1.81-15.75,2.72-23.66C387.93,908.14,386.38,884.56,385.78,860.14Z" transform="translate(-147.7 -150.98)"/>
        <path class="cls-3" d="M389.08,878.69c-2.46-98.8-6.7-186.46-7.23-285.67-.08-14.18.79-29.11,1.66-44.07.89-11.43,2.14-20.51,3.34-29.1l.45-3.2.22-1.59.05-.39,0-.2,0-.33.11-1.35c.29-3.52.58-7,.87-10.59.54-7,1-14,1.38-21.45.83-23.4,1.67-46.89,2.53-70.87l61.33,64.06,7.33,7.64,3.64,3.79,2.46,2.61L477,498.3l19.57,20.64q39.29,41.31,79.52,82.62,80.39,82.56,163.56,164.13C795.74,821.06,850,875.37,903.49,929.3l169.43,171-87.19,32.17-75.16,27.91q-75.57,28.2-153.35,58c-143.47,54.93-278.85,109.57-420.08,165.24-44.37,16.94-85,32.08-130.74,47-19.12,5.63-71.53,22.84-52.21,12.59s45.25-22.81,70.43-34.09c114.84-51,210.48-96.43,328.25-148,121.45-53.35,235.65-86,356.83-130.1,24.71-9.12,48.55-18.14,71.81-27.08l17.34-6.7,8.6-3.34,1.07-.42.53-.21.15-.06.59-.26,1.16-.5c3.06-1.35,5.84-2.62,8.28-3.78q-2.73-2.38-5.16-4.42l-2.33-2-.56-.46-.27-.23-.14-.11-.07-.06-.26-.24-4.54-4.35L969.48,1042c-24.36-23.29-48.94-46.88-74.24-71.51-22.59-22.92-44-48-54.1-62.76-21.77-29.66-9.32-22.85-49.94-63.58-53.38-52.44-102-95-157.81-150.45-41-41.18-79.46-80.59-117.88-119.52-19.22-19.47-38.41-38.82-57.89-58.2l-13.25-13.13c-2.58-2.52-5.18-5-7.78-7.56-5.15-5-10.21-9.76-15-14.18.21,9,.51,17.79.93,25.89l.28,4.61.14,2.21,0,.55,0,.27c0,.11,0,.12,0,.38l.06,2.45.45,19.62q.39,19.61.8,39.15c.48,26.06.83,52,.91,77.73.15,51.46-.76,102.05-3.82,150.93-4.8,78.84-14,129.36-20.77,195.62-4.5,46.54-5.14,104-7.21,159.13-.42,11-2.27,19.75-3.63,31.55-6.5-62.05-5-134.48-2.58-214.86.42-11,1.81-15.76,2.72-23.67C391.24,926.65,389.68,903.07,389.08,878.69Z" transform="translate(-147.7 -150.98)"/>
        <path class="cls-4" d="M395.47,909.29c-2.45-98.82-6.7-186.47-7.23-285.69-.08-14.18.79-29.11,1.67-44.06,1.77-22.88,5-36.32,6.34-55.22l.51-9.69q.27-6.56.53-13.1.54-12.69,1.06-25.33,1-23.67,2-47.1L445.5,477l19.57,20.86,17.21,18.42c23,24.52,46,48.91,69.38,73.33,46.76,48.84,94.83,97.79,146.19,148.17,63.82,63,123.92,123,183,182.11L1057.66,1097l-58.43,21.87-59.06,22.22c-39.76,15-80.34,30.44-122,46.43-143.38,54.9-278.8,109.56-420,165.23-44.33,16.93-107.22,42.84-153,57.73-19.17,5.65-93.84,33.62-74.52,23.36S215.92,1411,241,1399.72c114.88-51.07,210.48-96.43,328.25-148,121.48-53.36,235.66-86,356.85-130.11,21.55-7.95,42.44-15.82,62.85-23.64l15.21-5.85,3.78-1.46.13-.05,0,0,.08,0,.17-.07.34-.15,1.29-.6c1.68-.79,3.17-1.53,4.41-2.19-1.35-1.12-2.61-2.12-3.73-3l-1.61-1.2c.38.45-2.05-1.91-3.55-3.34l-5-4.76-39.73-38c-26.55-25.37-53.31-51-80.92-77.9-22.65-23-44-48-54.13-62.77C804.07,867,821,879,780.38,838.33c-53.32-52.4-102-95-157.79-150.43-39.53-39.74-76.76-77.84-113.86-115.45-18.55-18.81-37.07-37.5-55.82-56.21L441.59,505l-5.73-5.55c-3.78-3.65-7.5-7.15-11-10.33.23,8.5.6,16.82,1.15,24l.14,1.64.12,4.67.23,9.81q.23,9.81.44,19.61.41,19.59.81,39.14c.48,26.06.83,52,.91,77.73.15,51.46-.76,102.05-3.82,150.91-4.79,78.89-14,129.41-20.77,195.64-4.5,46.52-5.13,104-7.21,159.17-.42,11-2.26,19.71-3.62,31.56-6.51-62.12-2.05-115.67.37-196,.41-11,1.81-15.79,2.71-23.67C397.63,957.23,396.07,933.64,395.47,909.29Z" transform="translate(-147.7 -150.98)"/>
        <path class="cls-5" d="M407.29,911.17c-1.93-77.39-9.33-102.25-10-224.56-.08-14.15.79-29.11,1.66-44.09,1.77-22.85,5-36.32,6.35-55.22q1.83-35.46,3.62-70.29.84-15.67,1.68-31.25.78-13.92,1.57-27.77l25.32,27.39L449,497.85l3.13,3.35,3.65,3.88,7.3,7.74q29.26,30.95,59.1,61.89c39.89,41.31,80.94,82.86,124.31,125.41,79.09,78.09,144.06,143.61,207.15,207.41,31.54,31.9,62.64,63.33,94.72,95.76l49.17,49.45q11.69,11.71,23.71,23.74l16.13,16.06-39.82,15.11-61.83,23.58C792.36,1186.14,679.27,1230,538,1285.67c-44.39,16.95-151.78,64.39-197.53,79.29-19.16,5.64-160.57,65.93-141.25,55.67s29.17-15.7,54.37-27c114.8-51,197.9-90.34,315.67-141.9,121.48-53.36,242-88.37,363.26-132.53,20.39-7.52,40.19-15,59.54-22.38l14.44-5.53,1.62-.63.32-.15.64-.28,1.24-.57c1.6-.74,3-1.44,4.26-2.08-1.41-1.17-2.71-2.23-3.89-3.14l-1.67-1.26L999.4,1074l-40.94-39.14c-27.34-26.13-54.9-52.53-83.37-80.24-22.65-23-44-48-54.14-62.8-21.75-29.64-16.19-18.82-56.77-59.5C710.82,779.85,673.63,739,617.8,683.5c-38.74-39-75.28-76.32-111.64-113.2-18.18-18.44-36.32-36.76-54.67-55.1q-5.21-5.16-10.41-10.36l-5.47-5.33c-3.63-3.5-7.19-6.88-10.55-10,.11,4.59.27,9.12.47,13.46q.17,3.15.34,6.34c.06,1,.13,2,.19,3l.11,1.46.06.71v.18c0,.09,0,0,0,.29l0,1.08c2.46,104.67,4.92,209.28-1.19,307-4.8,78.8-14,129.37-20.78,195.61-4.49,46.49-5.13,104-7.21,159.18-.41,10.94-2.26,19.7-3.62,31.5-6.51-62,.9-96.87,3.31-177.16.42-11,4.28-20.57,5.19-28.39C398.85,1066.9,407.29,911.17,407.29,911.17Z" transform="translate(-147.7 -150.98)"/>
      </g>
    </g>
  </g>
  <g class="cls-1">
    <g class="cls-2">
      <g class="cls-2">
        <path class="cls-6" d="M478.17,913.24c-1.94-62.88-5.23-118.69-5.73-181.85-.08-9,.56-18.55,1.19-28,.09-.94.18-1.85.26-2.73.1-1.68.2-3.32.3-4.91.21-3.18.43-6.17.66-9,.45-5.66.92-10.69,1.39-15.42.93-9.47,1.81-17.67,2.33-27.51.37-9.55.75-19.13,1.13-28.93l44.62,46.87,10.62,11.12,2.62,2.74,2.16,2.28,3.21,3.44L555.79,695q25.83,27.51,52.39,55,53.05,54.87,108.28,108.85c34,33.49,67,66.66,99.77,99.73l107.42,108.86L859.34,1091l-51.7,19.07q-51.9,19.26-104.89,39.63c-91.22,35.1-177.24,70.3-267,106-28.22,10.82-54.09,20.45-83.29,29.72-12.26,3.45-31.59,7-19.4.22s28.56-15.11,44.54-22.49c72.79-33.31,133.32-63.18,208-96.75,77-34.78,150.11-54.56,227.27-82.55,15.78-5.81,31-11.58,45.84-17.32l11.07-4.3,1.37-.54.61-.24.2-.09.8-.35,1.53-.68c2-.9,3.83-1.76,5.42-2.54-2.47-2.13-4.7-4-6.63-5.5l-22.78-21.58C834.69,1016,819,1001.11,802.9,985.5c-14.36-14.6-27.76-30.79-33.94-40.42-13.42-19.34-5.52-15.68-31.35-41.6-34-33.3-65.33-60.06-100.88-95.35-26-26.2-50.47-51.32-74.88-76.11-12.2-12.39-24.4-24.7-36.79-37l-6-5.89L514,684.21c-3.34-3.2-6.62-6.28-9.71-9.11.16,6,.4,11.85.72,17.32l.43,6.05.11,1.42.05.7a9.81,9.81,0,0,1,.05,1l.18,6.24q.31,12.48.65,24.92c.39,16.59.68,33.11.76,49.49.18,32.76-.45,65-2.69,96.07-3.51,50.16-10.36,82.31-15.36,124.5-3.32,29.6-3.74,66.2-5.23,101.28-.3,7-1.68,12.58-2.69,20.12-4.94-39.53-6.12-97.66-4.4-148.8.29-7,1.34-10,2-15.06C479.85,943.8,478.66,928.79,478.17,913.24Z" transform="translate(-147.7 -150.98)"/>
        <path class="cls-7" d="M480.67,925.06c-1.95-62.9-5.23-118.71-5.74-181.87-.07-9,.56-18.53,1.2-28.06.33-3.63.72-6.9,1.15-9.93.22-1.52.44-3,.65-4.41l.7-7.19c.93-9.27,1.81-17.29,2.33-26.63.6-14.73,1.2-29.51,1.82-44.61L522,663.66l9.34,9.8,4.61,4.83,3.37,3.59,12.41,13.21q24.88,26.4,50.44,52.76c34,35.12,68.84,70.06,104.08,104.52,35.74,35.2,70.24,69.78,104.3,104.14l108.86,110-57,21-47.85,17.76q-48.11,18-97.59,37c-91.27,35.12-177.29,70.33-267.09,106.07-28.22,10.83-54.09,20.46-83.29,29.72-12.22,3.44-45.67,14.16-33.49,7.33s28.59-15.11,44.55-22.48c72.8-33.32,133.31-63.19,208-96.77,77-34.77,150.08-54.54,227.25-82.55,15.74-5.79,30.91-11.54,45.7-17.27l11-4.29,1.37-.53.54-.22.19-.08.76-.33,1.46-.66c1.91-.87,3.63-1.68,5.14-2.44-2.39-2-4.53-3.79-6.37-5.23l-22.86-21.65c-15.56-14.77-31.27-29.73-47.42-45.37-14.35-14.61-27.76-30.8-33.94-40.44-13.41-19.33-5.16-15.32-31-41.24-34-33.34-65.31-60.06-100.87-95.36-26.07-26.23-50.52-51.37-75-76.18-12.22-12.41-24.43-24.73-36.83-37.07L519,689.39l-4.94-4.77c-3.26-3.12-6.46-6.13-9.48-8.87.17,5.8.4,11.51.73,16.8l.43,5.91.1,1.38.06.68,0,.33,0,.17v.35l.18,6.24q.31,12.5.64,24.93c.39,16.59.68,33.11.77,49.49.17,32.75-.46,65-2.7,96.07-3.5,50.18-10.36,82.33-15.36,124.5-3.32,29.62-3.73,66.2-5.23,101.3-.3,7-1.67,12.56-2.68,20.07-4.95-39.5-3.9-85.61-2.17-136.78.29-7,1.34-10,2-15.06C482.34,955.59,481.15,940.58,480.67,925.06Z" transform="translate(-147.7 -150.98)"/>
        <path class="cls-8" d="M485.5,944.54c-1.95-62.91-5.23-118.71-5.74-181.88-.07-9,.56-18.52,1.2-28,.65-7.28,1.58-13.06,2.47-18.52.45-2.74.88-5.39,1.26-8.11.2-1.36.38-2.74.54-4.15.07-.71.15-1.42.23-2.15l.05-.55.05-.65.1-1.55q1.51-31.41,3-62.16l28.94,31L530.86,682,542,694c14.53,15.7,29.12,31.3,43.95,46.91,29.64,31.2,60.2,62.42,92.94,94.43,40.67,40.07,78.94,78.26,116.52,115.88L908,1064l-74.82,28.12c-25.3,9.58-51.12,19.43-77.65,29.66-91.22,35.09-177.27,70.31-267.07,106-28.2,10.82-68.14,27.56-97.34,36.82-12.26,3.45-59.79,21.28-47.6,14.44s28.62-15.13,44.54-22.48c72.83-33.33,133.32-63.18,208-96.77,77-34.77,150.08-54.54,227.27-82.54,13.72-5.06,27-10.08,40-15.07l4.85-1.88,2.42-.93.26-.1,0,0,.11,0,.22-.1,1.65-.78c1-.51,2-1,2.7-1.42-.89-.72-1.72-1.36-2.48-1.92l-1.08-.77-.49-.34-.12-.08-.06,0,0,0h0l-.1-.09-1.59-1.51-25.39-24.08c-17-16.08-34.07-32.34-51.68-49.41-14.4-14.65-27.77-30.8-34-40.45-13.39-19.32-2.35-11.91-28.19-37.83-34-33.3-65.31-60-100.86-95.34-25.16-25.31-48.81-49.62-72.4-73.59-11.79-12-23.57-23.89-35.51-35.8l-4-4L514,688.22c-2.39-2.29-4.74-4.48-6.94-6.45.19,5.5.47,10.92.88,15.63l.23,2.15.11,1,.06.5,0,1.54.36,12.48q.31,12.48.65,24.93.58,24.87.76,49.48c.18,32.76-.45,65-2.69,96.06-3.51,50.21-10.37,82.36-15.36,124.51-3.32,29.61-3.74,66.21-5.23,101.32-.3,7-1.68,12.54-2.68,20.09-4.95-39.55-1.67-73.64.05-124.8.3-7,1.34-10,2-15.06C487.17,975.06,486,960,485.5,944.54Z" transform="translate(-147.7 -150.98)"/>
        <path class="cls-9" d="M494.36,945.76c-1.53-49.27-7.11-65.11-7.74-143-.07-9,.57-18.53,1.2-28.07,1.3-14.54,3.73-23.11,4.7-35.14q1.32-22.4,2.63-44.38,1.2-18.48,2.37-36.76,8.14,8.92,16.28,17.84l7.4,8.11,3.55,3.88,1.82,2,2.31,2.48q18.54,19.8,37.47,39.56c25.31,26.38,51.41,52.85,79.07,79.89,50.4,49.65,91.73,91.4,131.85,132l60.24,61,31.28,31.49,24,24-62.87,24C738.7,1119.86,666.78,1148,577,1183.7c-28.24,10.83-96.32,41.77-125.53,51-12.25,3.44-102,42.58-89.81,35.75S380,1260,396,1252.63c72.77-33.31,125.36-59.17,200-92.76,77-34.77,154.15-56.07,231.35-84.09,13-4.78,25.58-9.53,37.9-14.26l4.6-1.77,1-.39.21-.09.41-.19,1.57-.73c1-.48,1.88-.94,2.62-1.35-.93-.75-1.79-1.43-2.58-2l-1.12-.82-.52-.35a1.17,1.17,0,0,1-.15-.12l-.82-.78-1.64-1.55-26.16-24.82c-17.48-16.56-35.09-33.3-53.25-50.9-14.4-14.64-27.76-30.8-34-40.47-13.4-19.31-10.16-12.12-36-38-34-33.32-57.48-59.54-93-94.85-24.66-24.8-47.87-48.64-71-72.14l-17.35-17.58L520.8,695.16c-4.62-4.62-9.38-9.21-13.62-13.06.18,5.92.47,11.78.94,16.76l.22,2,0,.12v.27l0,.78.05,1.56.09,3.12.36,12.49q.32,12.48.64,24.92c.39,16.59.68,33.1.77,49.48.18,32.76-.45,65-2.69,96.07-3.51,50.16-10.37,82.34-15.37,124.5-3.32,29.59-3.73,66.2-5.23,101.33-.3,7-1.67,12.53-2.68,20-4.95-39.51.57-61.67,2.29-112.78.3-7,3.19-13.09,3.86-18.07C488.21,1044.88,494.36,945.76,494.36,945.76Z" transform="translate(-147.7 -150.98)"/>
      </g>
    </g>
  </g>
  <g class="cls-1">
    <g class="cls-2">
      <g class="cls-2">
        <path class="cls-3" d="M1214.22,739.86c2.45,98.77,6.7,186.43,7.23,285.64.08,14.18-.79,29.15-1.66,44.08-.44,5.73-1,10.87-1.55,15.64-.33,4.37-.64,8.58-.94,12.68s-.65,8-1,11.93c-1.27,15.36-2.46,28.69-3.18,44.38-.53,15.17-1.05,30.37-1.59,45.94l-69.72-72.72-8.34-8.68-1.76-1.84-1.26-1.35-2.52-2.68-10.1-10.74-20.32-21.5q-40.79-43-82.59-86-83.57-86-170.18-170.93C791.45,771,739.5,718.92,688.06,667L521.46,498.49l97.92-36,81.2-30q81.52-30.27,164.83-62.14c143.38-54.9,278.76-109.54,420-165.21,44.35-16.94,85-32.07,130.73-47,19.18-5.66,49.26-12.07,29.94-1.81s-45.22,22.8-70.43,34.09c-114.83,51-210.48,96.43-328.18,148-121.5,53.37-235.71,86-356.86,130.11-24.78,9.15-48.7,18.19-72,27.17l-17.4,6.72-8.62,3.35-1.85.72-.62.27-1.22.53c-3.21,1.4-6.13,2.73-8.72,3.95,1.89,1.65,3.68,3.2,5.36,4.63L588,518l.59.49.29.24.14.11.28.26,4.53,4.34,36.35,34.74c24.3,23.24,48.84,46.79,74.09,71.37,22.59,22.91,44,48,54.09,62.73,21.78,29.67,9.87,23.42,50.47,64.12,53.34,52.41,102,95,157.81,150.45,40.92,41.13,79.38,80.51,117.76,119.41,19.2,19.45,38.38,38.78,57.83,58.14l13.26,13.14q4,3.87,8,7.74c5.27,5.09,10.45,10,15.35,14.56-.21-9.26-.51-18.33-.93-26.69l-.28-4.73-.14-2.28,0-.56,0-.28v-.55l-.06-2.45-.45-19.61q-.4-19.61-.8-39.15-.73-39.09-.91-77.74c-.16-51.47.76-102.07,3.82-150.92,4.79-78.8,14-129.34,20.77-195.61,4.49-46.51,5.13-104,7.21-159.12.41-11.06,2.27-19.76,3.63-31.61,6.5,62.09,7.94,153.39,5.52,233.73-.41,11.07-1.81,15.75-2.72,23.66C1212.07,691.86,1213.62,715.44,1214.22,739.86Z" transform="translate(-147.7 -150.98)"/>
        <path class="cls-3" d="M1210.92,721.31c2.46,98.8,6.7,186.46,7.23,285.67.08,14.18-.79,29.11-1.66,44.07-.89,11.43-2.14,20.51-3.34,29.1l-.45,3.2-.22,1.59,0,.39,0,.2,0,.33-.11,1.35c-.29,3.52-.58,7-.87,10.59-.54,7-1,14-1.38,21.45-.83,23.4-1.67,46.89-2.53,70.87l-61.33-64.06-7.33-7.64-3.64-3.79-2.46-2.61L1123,1101.7l-19.57-20.64q-39.29-41.31-79.52-82.62Q943.5,915.88,860.33,834.31C804.26,778.94,750.05,724.63,696.51,670.7l-169.43-171,87.19-32.17,75.16-27.91q75.57-28.2,153.35-58c143.47-54.93,278.85-109.57,420.08-165.24,44.37-16.94,85-32.08,130.74-47,19.12-5.63,71.53-22.84,52.21-12.59s-45.25,22.81-70.43,34.09C1260.54,242,1164.9,287.4,1047.13,339c-121.45,53.35-235.65,86-356.83,130.1-24.71,9.12-48.55,18.14-71.81,27.08l-17.34,6.7-8.6,3.34-1.07.42-.53.21-.15.06-.59.26-1.16.5c-3.06,1.35-5.84,2.62-8.28,3.78q2.73,2.38,5.16,4.42l2.33,1.95.56.46.27.23.14.11.07.06.26.24,4.54,4.35L630.52,558c24.36,23.29,48.94,46.88,74.24,71.51,22.59,22.92,44,48,54.1,62.76,21.77,29.66,9.32,22.85,49.94,63.58,53.38,52.44,102,95,157.81,150.45,41,41.18,79.46,80.59,117.88,119.52,19.22,19.47,38.41,38.82,57.89,58.2l13.25,13.13c2.58,2.52,5.18,5,7.78,7.56,5.15,5,10.21,9.76,15,14.18-.21-9-.51-17.79-.93-25.89l-.28-4.61-.14-2.21,0-.55,0-.27c0-.11,0-.12,0-.38l-.06-2.45-.45-19.62q-.39-19.6-.8-39.15c-.48-26.06-.83-52-.91-77.73-.15-51.46.76-102.05,3.82-150.93,4.8-78.84,14-129.36,20.77-195.62,4.5-46.54,5.14-104,7.21-159.13.42-11,2.27-19.75,3.63-31.55,6.5,62,5,134.48,2.58,214.86-.42,11-1.81,15.76-2.72,23.67C1208.76,673.35,1210.32,696.93,1210.92,721.31Z" transform="translate(-147.7 -150.98)"/>
        <path class="cls-4" d="M1204.53,690.71c2.45,98.82,6.7,186.47,7.23,285.69.08,14.18-.79,29.11-1.67,44.06-1.77,22.88-5,36.32-6.34,55.22l-.51,9.69q-.27,6.56-.53,13.1-.54,12.69-1.06,25.33-1,23.67-2,47.1L1154.5,1123l-19.57-20.86-17.21-18.42c-23-24.52-46-48.91-69.38-73.33-46.76-48.84-94.83-97.79-146.19-148.17-63.82-63-123.92-123-183-182.11L542.34,503l58.43-21.87L659.83,459c39.76-15,80.34-30.44,122-46.43,143.38-54.9,278.8-109.56,420.05-165.23,44.33-16.93,107.22-42.84,153-57.73,19.17-5.65,93.84-33.62,74.52-23.36S1384.08,189,1359,200.28c-114.88,51.07-210.48,96.43-328.25,148-121.48,53.36-235.66,86-356.85,130.11C652.31,486.33,631.42,494.2,611,502l-15.21,5.85L592,509.33l-.13.05,0,0-.08,0-.17.07-.34.15-1.29.6c-1.68.79-3.17,1.53-4.41,2.19,1.35,1.12,2.61,2.12,3.73,3l1.61,1.2c-.38-.45,2.05,1.91,3.55,3.34l5,4.76,39.73,38c26.55,25.37,53.31,51,80.92,77.9,22.65,23,44,48,54.13,62.77C795.93,733,779,721,819.62,761.67c53.32,52.4,102,95,157.79,150.43,39.53,39.74,76.76,77.84,113.86,115.45,18.55,18.81,37.07,37.5,55.82,56.21l11.32,11.26,5.73,5.55c3.78,3.65,7.5,7.15,11,10.33-.23-8.5-.6-16.82-1.15-24l-.14-1.64-.12-4.67-.23-9.81q-.23-9.81-.44-19.61-.4-19.59-.81-39.14c-.48-26.06-.83-52-.91-77.73-.15-51.46.76-102.05,3.82-150.91,4.79-78.89,14-129.41,20.77-195.64,4.5-46.52,5.13-104,7.21-159.17.42-11,2.27-19.71,3.62-31.56,6.51,62.12,2,115.67-.36,196-.42,11-1.82,15.79-2.72,23.67C1202.37,642.77,1203.93,666.36,1204.53,690.71Z" transform="translate(-147.7 -150.98)"/>
        <path class="cls-5" d="M1192.71,688.83c1.93,77.39,9.33,102.25,10,224.56.08,14.15-.79,29.11-1.66,44.09-1.77,22.85-5,36.32-6.35,55.22q-1.83,35.46-3.62,70.29-.84,15.67-1.68,31.25-.78,13.92-1.57,27.77l-25.32-27.39L1151,1102.15l-3.13-3.35-3.65-3.88-7.3-7.74q-29.26-30.95-59.1-61.89c-39.89-41.31-80.94-82.86-124.31-125.41C874.4,821.79,809.43,756.27,746.34,692.47c-31.54-31.9-62.64-63.33-94.72-95.76l-49.17-49.45q-11.69-11.71-23.71-23.74l-16.13-16.06,39.82-15.11,61.83-23.58C807.64,413.86,920.73,370,1062,314.33c44.39-16.95,151.78-64.39,197.53-79.29,19.16-5.64,160.57-65.93,141.25-55.67s-29.17,15.7-54.37,27c-114.8,51-197.9,90.34-315.67,141.9-121.48,53.36-242,88.37-363.26,132.53-20.39,7.52-40.19,15-59.54,22.38l-14.44,5.53-1.62.63-.32.15-.64.28-1.24.57c-1.6.74-3,1.44-4.26,2.08,1.41,1.17,2.71,2.23,3.89,3.14l1.67,1.26L600.6,526l40.94,39.14c27.34,26.13,54.9,52.53,83.37,80.24,22.65,23,44,48,54.14,62.8,21.75,29.64,16.19,18.82,56.77,59.5C889.18,820.15,926.37,861,982.2,916.5c38.74,39,75.28,76.32,111.64,113.2,18.18,18.44,36.32,36.76,54.67,55.1q5.21,5.16,10.41,10.36l5.47,5.33c3.63,3.5,7.19,6.88,10.55,10-.11-4.59-.27-9.12-.47-13.46q-.17-3.15-.34-6.34c-.06-1-.13-2-.19-3l-.11-1.46-.06-.71v-.18c0-.09,0,0,0-.29l0-1.08c-2.46-104.67-4.92-209.28,1.19-307,4.8-78.8,14-129.37,20.78-195.61,4.49-46.49,5.13-104,7.21-159.18.41-10.94,2.26-19.7,3.62-31.5,6.51,62-.9,96.87-3.31,177.16-.42,11-4.28,20.57-5.19,28.39C1201.15,533.1,1192.71,688.83,1192.71,688.83Z" transform="translate(-147.7 -150.98)"/>
      </g>
    </g>
  </g>
  <g class="cls-1">
    <g class="cls-2">
      <g class="cls-2">
        <path class="cls-6" d="M1121.83,686.76c1.94,62.88,5.23,118.69,5.73,181.85.08,9-.56,18.55-1.19,28-.09.94-.18,1.85-.26,2.73-.1,1.68-.2,3.32-.3,4.91-.21,3.18-.43,6.17-.66,9-.45,5.66-.92,10.69-1.39,15.42-.93,9.47-1.81,17.67-2.33,27.51-.37,9.55-.75,19.13-1.13,28.93l-44.62-46.87-10.62-11.12-2.62-2.74-2.16-2.28-3.21-3.44L1044.21,905q-25.83-27.51-52.39-55-53.05-54.87-108.28-108.85c-34-33.49-67-66.66-99.77-99.73L676.35,532.56,740.66,509l51.7-19.07q51.9-19.26,104.89-39.63c91.22-35.1,177.24-70.3,267-106,28.22-10.82,54.09-20.45,83.29-29.72,12.26-3.45,31.59-7.05,19.4-.22s-28.56,15.11-44.54,22.49c-72.79,33.31-133.32,63.18-208,96.75-77,34.78-150.11,54.56-227.27,82.55-15.78,5.81-31,11.58-45.84,17.32l-11.07,4.3-1.37.54-.61.24-.2.09-.8.35-1.53.68c-2,.9-3.83,1.76-5.42,2.54,2.47,2.13,4.7,4,6.63,5.5l22.78,21.58C765.31,584,781,598.89,797.1,614.5c14.36,14.6,27.76,30.79,33.94,40.42,13.42,19.34,5.52,15.68,31.35,41.6,34,33.3,65.33,60.06,100.88,95.35,26,26.2,50.47,51.32,74.88,76.11,12.2,12.39,24.4,24.7,36.79,37l6,5.89,5,4.89c3.34,3.2,6.62,6.28,9.71,9.11-.16-6-.4-11.85-.72-17.32l-.43-6.05-.11-1.42-.05-.7a9.81,9.81,0,0,1,0-1l-.18-6.24q-.32-12.48-.65-24.92c-.39-16.59-.68-33.11-.76-49.49-.18-32.76.45-65,2.69-96.07,3.51-50.16,10.36-82.31,15.36-124.5,3.32-29.6,3.74-66.2,5.23-101.28.3-7,1.68-12.58,2.69-20.12,4.94,39.53,6.12,97.66,4.4,148.8-.29,7-1.34,10-2,15.06C1120.15,656.2,1121.34,671.21,1121.83,686.76Z" transform="translate(-147.7 -150.98)"/>
        <path class="cls-7" d="M1119.33,674.94c2,62.9,5.23,118.71,5.74,181.87.07,9-.56,18.53-1.2,28.06-.33,3.63-.72,6.9-1.15,9.93-.22,1.52-.44,3-.65,4.41-.24,2.45-.47,4.84-.7,7.19-.93,9.27-1.81,17.29-2.33,26.63-.6,14.73-1.2,29.51-1.82,44.61L1078,936.34l-9.34-9.8-4.61-4.83-3.37-3.59-12.41-13.21q-24.88-26.4-50.44-52.76C963.77,817,929,782.09,893.72,747.63c-35.74-35.2-70.24-69.78-104.3-104.14l-108.86-110,57-21,47.85-17.76q48.11-18,97.59-37c91.27-35.12,177.29-70.33,267.09-106.07,28.22-10.83,54.09-20.46,83.29-29.72,12.22-3.44,45.67-14.16,33.49-7.33s-28.59,15.11-44.55,22.48c-72.8,33.32-133.31,63.19-208,96.77-77,34.77-150.08,54.54-227.25,82.55-15.74,5.79-30.91,11.54-45.7,17.27l-11,4.29-1.37.53-.54.22-.19.08-.76.33-1.46.66c-1.91.87-3.63,1.68-5.14,2.44,2.39,2,4.53,3.79,6.37,5.23l22.86,21.65c15.56,14.77,31.27,29.73,47.42,45.37,14.35,14.61,27.76,30.8,33.94,40.44,13.41,19.33,5.16,15.32,31,41.24,34,33.34,65.31,60.06,100.87,95.36,26.07,26.23,50.52,51.37,75,76.18,12.22,12.41,24.43,24.73,36.83,37.07l5.91,5.82,4.94,4.77c3.26,3.12,6.46,6.13,9.48,8.87-.17-5.8-.4-11.51-.73-16.8l-.43-5.91-.1-1.38-.06-.68,0-.33,0-.17v-.35l-.18-6.24q-.31-12.5-.64-24.93c-.39-16.59-.68-33.11-.77-49.49-.17-32.75.46-65,2.7-96.07,3.5-50.18,10.36-82.33,15.36-124.5,3.32-29.62,3.73-66.2,5.23-101.3.3-7,1.67-12.56,2.68-20.07,5,39.5,3.9,85.61,2.17,136.78-.29,7-1.34,10-2,15.06C1117.66,644.41,1118.85,659.42,1119.33,674.94Z" transform="translate(-147.7 -150.98)"/>
        <path class="cls-8" d="M1114.5,655.46c2,62.91,5.23,118.71,5.74,181.88.07,9-.56,18.52-1.2,28-.65,7.28-1.58,13.06-2.47,18.52-.45,2.74-.88,5.39-1.26,8.11-.2,1.36-.38,2.74-.54,4.15-.07.71-.15,1.42-.23,2.15l0,.55,0,.65c0,.51-.07,1-.1,1.55q-1.52,31.41-3,62.16l-28.94-31L1069.14,918,1058,906c-14.53-15.7-29.12-31.3-43.95-46.91-29.64-31.2-60.2-62.42-92.94-94.43-40.67-40.07-78.94-78.26-116.52-115.88L692,536l74.82-28.12c25.3-9.58,51.12-19.43,77.65-29.66,91.22-35.09,177.27-70.31,267.07-106,28.2-10.82,68.14-27.56,97.34-36.82,12.26-3.45,59.79-21.28,47.6-14.44S1227.87,336,1212,343.36c-72.83,33.33-133.32,63.18-208,96.77-77,34.77-150.08,54.54-227.27,82.54-13.72,5.06-27,10.08-40,15.07l-4.85,1.88-2.42.93-.26.1,0,0-.11.05-.22.1-1.65.78c-1,.51-2,1-2.7,1.42.89.72,1.72,1.36,2.48,1.92l1.08.77.49.34.12.08.06,0,0,0h0l.1.09,1.59,1.51,25.39,24.08c17,16.08,34.07,32.34,51.68,49.41,14.4,14.65,27.77,30.8,34,40.45,13.39,19.32,2.35,11.91,28.19,37.83,34,33.3,65.31,60,100.86,95.34,25.16,25.31,48.81,49.62,72.39,73.59,11.8,12,23.58,23.89,35.52,35.8l4,4,3.63,3.51c2.39,2.29,4.74,4.48,6.94,6.45-.19-5.5-.47-10.92-.88-15.63l-.23-2.15-.11-1-.06-.5,0-1.54-.36-12.48q-.32-12.48-.65-24.93-.59-24.87-.76-49.48c-.18-32.76.45-65,2.69-96.06,3.51-50.21,10.37-82.36,15.36-124.51,3.32-29.61,3.74-66.21,5.23-101.32.3-7,1.68-12.54,2.68-20.09,5,39.55,1.67,73.64,0,124.8-.3,7-1.34,10-2,15.06C1112.83,624.94,1114,640,1114.5,655.46Z" transform="translate(-147.7 -150.98)"/>
        <path class="cls-9" d="M1105.64,654.24c1.53,49.27,7.11,65.11,7.74,143,.07,9-.57,18.53-1.2,28.07-1.3,14.54-3.73,23.11-4.7,35.14q-1.32,22.4-2.63,44.38-1.2,18.48-2.37,36.76-8.14-8.92-16.28-17.84l-7.4-8.11-3.55-3.88-1.82-2-2.31-2.48q-18.54-19.8-37.47-39.56c-25.31-26.38-51.41-52.85-79.07-79.89-50.4-49.65-91.73-91.4-131.85-132l-60.24-61-31.28-31.49-24-24,62.87-24c91.22-35.1,163.14-63.19,252.94-98.94,28.24-10.83,96.32-41.77,125.53-51,12.25-3.44,102-42.58,89.81-35.75S1220,340,1204,347.37c-72.77,33.31-125.36,59.17-200,92.76-77,34.77-154.15,56.07-231.35,84.09-13,4.78-25.58,9.53-37.9,14.26-1.53.6-3.07,1.19-4.6,1.77l-1,.39-.21.09-.41.19-1.57.73c-1,.48-1.88.94-2.62,1.35.93.75,1.79,1.43,2.58,2l1.12.82.52.35a1.17,1.17,0,0,1,.15.12l.82.78,1.64,1.55,26.16,24.82c17.48,16.56,35.09,33.3,53.25,50.9,14.4,14.64,27.76,30.8,34,40.47,13.4,19.31,10.16,12.12,36,38,34,33.32,57.48,59.54,93,94.85,24.66,24.8,47.87,48.64,71,72.14l17.35,17.58,17.33,17.41c4.62,4.62,9.38,9.21,13.62,13.06-.18-5.92-.47-11.78-.94-16.76l-.22-2,0-.12v-.27l0-.78,0-1.56-.09-3.12-.36-12.49q-.31-12.48-.64-24.92c-.39-16.59-.68-33.1-.77-49.48-.18-32.76.45-65,2.69-96.07,3.51-50.16,10.37-82.34,15.37-124.5,3.32-29.59,3.73-66.2,5.23-101.33.3-7,1.67-12.53,2.68-20,4.95,39.51-.57,61.67-2.29,112.78-.3,7-3.19,13.09-3.86,18.07C1111.79,555.12,1105.64,654.24,1105.64,654.24Z" transform="translate(-147.7 -150.98)"/>
      </g>
    </g>
  </g>
  <g class="cls-1">
    <g class="cls-2">
      <g class="cls-2">
        <path class="cls-3" d="M385.78,860.14c-2.45-98.77-6.7-186.43-7.23-285.64-.08-14.18.79-29.15,1.66-44.08.44-5.73,1-10.87,1.55-15.64.33-4.37.64-8.58.94-12.68s.65-8,1-11.93c1.27-15.36,2.46-28.69,3.18-44.38.53-15.17,1.05-30.37,1.59-45.94l69.72,72.72,8.34,8.68,1.76,1.84,1.26,1.35,2.52,2.68,10.1,10.74,20.32,21.5q40.79,43,82.59,86,83.57,86,170.18,170.93C808.55,829,860.5,881.08,911.94,933l166.6,168.52-97.92,36-81.2,30q-81.52,30.27-164.83,62.14c-143.38,54.9-278.76,109.54-420,165.21-44.36,16.94-85,32.07-130.74,47-19.18,5.66-49.26,12.07-29.94,1.81s45.22-22.8,70.43-34.09c114.83-51,210.48-96.43,328.18-148,121.5-53.37,235.71-86,356.86-130.11,24.78-9.15,48.7-18.19,72-27.17l17.4-6.72,8.62-3.35,1.85-.72.62-.27,1.22-.53c3.21-1.4,6.13-2.73,8.72-4-1.89-1.65-3.68-3.2-5.36-4.63l-2.44-2-.59-.49-.29-.24-.14-.11-.28-.26-4.53-4.34-36.35-34.74c-24.3-23.24-48.84-46.79-74.09-71.37-22.59-22.91-44-48-54.09-62.73-21.78-29.67-9.87-23.42-50.47-64.12-53.34-52.41-102-95-157.81-150.45C592.49,652.06,554,612.68,515.65,573.78c-19.2-19.45-38.38-38.78-57.83-58.14L444.56,502.5q-4-3.87-8-7.74c-5.27-5.09-10.45-10-15.35-14.56.21,9.26.51,18.33.93,26.69l.28,4.73.14,2.28,0,.56,0,.28v.55l.06,2.45.45,19.61q.4,19.6.8,39.15.73,39.09.91,77.74c.16,51.47-.76,102.07-3.82,150.92-4.79,78.8-14,129.34-20.77,195.61-4.49,46.51-5.13,104-7.21,159.12-.41,11.06-2.27,19.76-3.63,31.61-6.5-62.09-7.94-153.39-5.52-233.73.41-11.07,1.81-15.75,2.72-23.66C387.93,908.14,386.38,884.56,385.78,860.14Z" transform="translate(-147.7 -150.98)"/>
        <path class="cls-3" d="M389.08,878.69c-2.46-98.8-6.7-186.46-7.23-285.67-.08-14.18.79-29.11,1.66-44.07.89-11.43,2.14-20.51,3.34-29.1l.45-3.2.22-1.59.05-.39,0-.2,0-.33.11-1.35c.29-3.52.58-7,.87-10.59.54-7,1-14,1.38-21.45.83-23.4,1.67-46.89,2.53-70.87l61.33,64.06,7.33,7.64,3.64,3.79,2.46,2.61L477,498.3l19.57,20.64q39.29,41.31,79.52,82.62,80.39,82.56,163.56,164.13C795.74,821.06,850,875.37,903.49,929.3l169.43,171-87.19,32.17-75.16,27.91q-75.57,28.2-153.35,58c-143.47,54.93-278.85,109.57-420.08,165.24-44.37,16.94-85,32.08-130.74,47-19.12,5.63-71.53,22.84-52.21,12.59s45.25-22.81,70.43-34.09c114.84-51,210.48-96.43,328.25-148,121.45-53.35,235.65-86,356.83-130.1,24.71-9.12,48.55-18.14,71.81-27.08l17.34-6.7,8.6-3.34,1.07-.42.53-.21.15-.06.59-.26,1.16-.5c3.06-1.35,5.84-2.62,8.28-3.78q-2.73-2.38-5.16-4.42l-2.33-2-.56-.46-.27-.23-.14-.11-.07-.06-.26-.24-4.54-4.35L969.48,1042c-24.36-23.29-48.94-46.88-74.24-71.51-22.59-22.92-44-48-54.1-62.76-21.77-29.66-9.32-22.85-49.94-63.58-53.38-52.44-102-95-157.81-150.45-41-41.18-79.46-80.59-117.88-119.52-19.22-19.47-38.41-38.82-57.89-58.2l-13.25-13.13c-2.58-2.52-5.18-5-7.78-7.56-5.15-5-10.21-9.76-15-14.18.21,9,.51,17.79.93,25.89l.28,4.61.14,2.21,0,.55,0,.27c0,.11,0,.12,0,.38l.06,2.45.45,19.62q.39,19.61.8,39.15c.48,26.06.83,52,.91,77.73.15,51.46-.76,102.05-3.82,150.93-4.8,78.84-14,129.36-20.77,195.62-4.5,46.54-5.14,104-7.21,159.13-.42,11-2.27,19.75-3.63,31.55-6.5-62.05-5-134.48-2.58-214.86.42-11,1.81-15.76,2.72-23.67C391.24,926.65,389.68,903.07,389.08,878.69Z" transform="translate(-147.7 -150.98)"/>
        <path class="cls-4" d="M395.47,909.29c-2.45-98.82-6.7-186.47-7.23-285.69-.08-14.18.79-29.11,1.67-44.06,1.77-22.88,5-36.32,6.34-55.22l.51-9.69q.27-6.56.53-13.1.54-12.69,1.06-25.33,1-23.67,2-47.1L445.5,477l19.57,20.86,17.21,18.42c23,24.52,46,48.91,69.38,73.33,46.76,48.84,94.83,97.79,146.19,148.17,63.82,63,123.92,123,183,182.11L1057.66,1097l-58.43,21.87-59.06,22.22c-39.76,15-80.34,30.44-122,46.43-143.38,54.9-278.8,109.56-420,165.23-44.33,16.93-107.22,42.84-153,57.73-19.17,5.65-93.84,33.62-74.52,23.36S215.92,1411,241,1399.72c114.88-51.07,210.48-96.43,328.25-148,121.48-53.36,235.66-86,356.85-130.11,21.55-7.95,42.44-15.82,62.85-23.64l15.21-5.85,3.78-1.46.13-.05,0,0,.08,0,.17-.07.34-.15,1.29-.6c1.68-.79,3.17-1.53,4.41-2.19-1.35-1.12-2.61-2.12-3.73-3l-1.61-1.2c.38.45-2.05-1.91-3.55-3.34l-5-4.76-39.73-38c-26.55-25.37-53.31-51-80.92-77.9-22.65-23-44-48-54.13-62.77C804.07,867,821,879,780.38,838.33c-53.32-52.4-102-95-157.79-150.43-39.53-39.74-76.76-77.84-113.86-115.45-18.55-18.81-37.07-37.5-55.82-56.21L441.59,505l-5.73-5.55c-3.78-3.65-7.5-7.15-11-10.33.23,8.5.6,16.82,1.15,24l.14,1.64.12,4.67.23,9.81q.23,9.81.44,19.61.41,19.59.81,39.14c.48,26.06.83,52,.91,77.73.15,51.46-.76,102.05-3.82,150.91-4.79,78.89-14,129.41-20.77,195.64-4.5,46.52-5.13,104-7.21,159.17-.42,11-2.26,19.71-3.62,31.56-6.51-62.12-2.05-115.67.37-196,.41-11,1.81-15.79,2.71-23.67C397.63,957.23,396.07,933.64,395.47,909.29Z" transform="translate(-147.7 -150.98)"/>
        <path class="cls-5" d="M407.29,911.17c-1.93-77.39-9.33-102.25-10-224.56-.08-14.15.79-29.11,1.66-44.09,1.77-22.85,5-36.32,6.35-55.22q1.83-35.46,3.62-70.29.84-15.67,1.68-31.25.78-13.92,1.57-27.77l25.32,27.39L449,497.85l3.13,3.35,3.65,3.88,7.3,7.74q29.26,30.95,59.1,61.89c39.89,41.31,80.94,82.86,124.31,125.41,79.09,78.09,144.06,143.61,207.15,207.41,31.54,31.9,62.64,63.33,94.72,95.76l49.17,49.45q11.69,11.71,23.71,23.74l16.13,16.06-39.82,15.11-61.83,23.58C792.36,1186.14,679.27,1230,538,1285.67c-44.39,16.95-151.78,64.39-197.53,79.29-19.16,5.64-160.57,65.93-141.25,55.67s29.17-15.7,54.37-27c114.8-51,197.9-90.34,315.67-141.9,121.48-53.36,242-88.37,363.26-132.53,20.39-7.52,40.19-15,59.54-22.38l14.44-5.53,1.62-.63.32-.15.64-.28,1.24-.57c1.6-.74,3-1.44,4.26-2.08-1.41-1.17-2.71-2.23-3.89-3.14l-1.67-1.26L999.4,1074l-40.94-39.14c-27.34-26.13-54.9-52.53-83.37-80.24-22.65-23-44-48-54.14-62.8-21.75-29.64-16.19-18.82-56.77-59.5C710.82,779.85,673.63,739,617.8,683.5c-38.74-39-75.28-76.32-111.64-113.2-18.18-18.44-36.32-36.76-54.67-55.1q-5.21-5.16-10.41-10.36l-5.47-5.33c-3.63-3.5-7.19-6.88-10.55-10,.11,4.59.27,9.12.47,13.46q.17,3.15.34,6.34c.06,1,.13,2,.19,3l.11,1.46.06.71v.18c0,.09,0,0,0,.29l0,1.08c2.46,104.67,4.92,209.28-1.19,307-4.8,78.8-14,129.37-20.78,195.61-4.49,46.49-5.13,104-7.21,159.18-.41,10.94-2.26,19.7-3.62,31.5-6.51-62,.9-96.87,3.31-177.16.42-11,4.28-20.57,5.19-28.39C398.85,1066.9,407.29,911.17,407.29,911.17Z" transform="translate(-147.7 -150.98)"/>
      </g>
    </g>
  </g>
  <g class="cls-1">
    <g class="cls-2">
      <g class="cls-2">
        <path class="cls-6" d="M478.17,913.24c-1.94-62.88-5.23-118.69-5.73-181.85-.08-9,.56-18.55,1.19-28,.09-.94.18-1.85.26-2.73.1-1.68.2-3.32.3-4.91.21-3.18.43-6.17.66-9,.45-5.66.92-10.69,1.39-15.42.93-9.47,1.81-17.67,2.33-27.51.37-9.55.75-19.13,1.13-28.93l44.62,46.87,10.62,11.12,2.62,2.74,2.16,2.28,3.21,3.44L555.79,695q25.83,27.51,52.39,55,53.05,54.87,108.28,108.85c34,33.49,67,66.66,99.77,99.73l107.42,108.86L859.34,1091l-51.7,19.07q-51.9,19.26-104.89,39.63c-91.22,35.1-177.24,70.3-267,106-28.22,10.82-54.09,20.45-83.29,29.72-12.26,3.45-31.59,7-19.4.22s28.56-15.11,44.54-22.49c72.79-33.31,133.32-63.18,208-96.75,77-34.78,150.11-54.56,227.27-82.55,15.78-5.81,31-11.58,45.84-17.32l11.07-4.3,1.37-.54.61-.24.2-.09.8-.35,1.53-.68c2-.9,3.83-1.76,5.42-2.54-2.47-2.13-4.7-4-6.63-5.5l-22.78-21.58C834.69,1016,819,1001.11,802.9,985.5c-14.36-14.6-27.76-30.79-33.94-40.42-13.42-19.34-5.52-15.68-31.35-41.6-34-33.3-65.33-60.06-100.88-95.35-26-26.2-50.47-51.32-74.88-76.11-12.2-12.39-24.4-24.7-36.79-37l-6-5.89L514,684.21c-3.34-3.2-6.62-6.28-9.71-9.11.16,6,.4,11.85.72,17.32l.43,6.05.11,1.42.05.7a9.81,9.81,0,0,1,.05,1l.18,6.24q.31,12.48.65,24.92c.39,16.59.68,33.11.76,49.49.18,32.76-.45,65-2.69,96.07-3.51,50.16-10.36,82.31-15.36,124.5-3.32,29.6-3.74,66.2-5.23,101.28-.3,7-1.68,12.58-2.69,20.12-4.94-39.53-6.12-97.66-4.4-148.8.29-7,1.34-10,2-15.06C479.85,943.8,478.66,928.79,478.17,913.24Z" transform="translate(-147.7 -150.98)"/>
        <path class="cls-7" d="M480.67,925.06c-1.95-62.9-5.23-118.71-5.74-181.87-.07-9,.56-18.53,1.2-28.06.33-3.63.72-6.9,1.15-9.93.22-1.52.44-3,.65-4.41l.7-7.19c.93-9.27,1.81-17.29,2.33-26.63.6-14.73,1.2-29.51,1.82-44.61L522,663.66l9.34,9.8,4.61,4.83,3.37,3.59,12.41,13.21q24.88,26.4,50.44,52.76c34,35.12,68.84,70.06,104.08,104.52,35.74,35.2,70.24,69.78,104.3,104.14l108.86,110-57,21-47.85,17.76q-48.11,18-97.59,37c-91.27,35.12-177.29,70.33-267.09,106.07-28.22,10.83-54.09,20.46-83.29,29.72-12.22,3.44-45.67,14.16-33.49,7.33s28.59-15.11,44.55-22.48c72.8-33.32,133.31-63.19,208-96.77,77-34.77,150.08-54.54,227.25-82.55,15.74-5.79,30.91-11.54,45.7-17.27l11-4.29,1.37-.53.54-.22.19-.08.76-.33,1.46-.66c1.91-.87,3.63-1.68,5.14-2.44-2.39-2-4.53-3.79-6.37-5.23l-22.86-21.65c-15.56-14.77-31.27-29.73-47.42-45.37-14.35-14.61-27.76-30.8-33.94-40.44-13.41-19.33-5.16-15.32-31-41.24-34-33.34-65.31-60.06-100.87-95.36-26.07-26.23-50.52-51.37-75-76.18-12.22-12.41-24.43-24.73-36.83-37.07L519,689.39l-4.94-4.77c-3.26-3.12-6.46-6.13-9.48-8.87.17,5.8.4,11.51.73,16.8l.43,5.91.1,1.38.06.68,0,.33,0,.17v.35l.18,6.24q.31,12.5.64,24.93c.39,16.59.68,33.11.77,49.49.17,32.75-.46,65-2.7,96.07-3.5,50.18-10.36,82.33-15.36,124.5-3.32,29.62-3.73,66.2-5.23,101.3-.3,7-1.67,12.56-2.68,20.07-4.95-39.5-3.9-85.61-2.17-136.78.29-7,1.34-10,2-15.06C482.34,955.59,481.15,940.58,480.67,925.06Z" transform="translate(-147.7 -150.98)"/>
        <path class="cls-8" d="M485.5,944.54c-1.95-62.91-5.23-118.71-5.74-181.88-.07-9,.56-18.52,1.2-28,.65-7.28,1.58-13.06,2.47-18.52.45-2.74.88-5.39,1.26-8.11.2-1.36.38-2.74.54-4.15.07-.71.15-1.42.23-2.15l.05-.55.05-.65.1-1.55q1.51-31.41,3-62.16l28.94,31L530.86,682,542,694c14.53,15.7,29.12,31.3,43.95,46.91,29.64,31.2,60.2,62.42,92.94,94.43,40.67,40.07,78.94,78.26,116.52,115.88L908,1064l-74.82,28.12c-25.3,9.58-51.12,19.43-77.65,29.66-91.22,35.09-177.27,70.31-267.07,106-28.2,10.82-68.14,27.56-97.34,36.82-12.26,3.45-59.79,21.28-47.6,14.44s28.62-15.13,44.54-22.48c72.83-33.33,133.32-63.18,208-96.77,77-34.77,150.08-54.54,227.27-82.54,13.72-5.06,27-10.08,40-15.07l4.85-1.88,2.42-.93.26-.1,0,0,.11,0,.22-.1,1.65-.78c1-.51,2-1,2.7-1.42-.89-.72-1.72-1.36-2.48-1.92l-1.08-.77-.49-.34-.12-.08-.06,0,0,0h0l-.1-.09-1.59-1.51-25.39-24.08c-17-16.08-34.07-32.34-51.68-49.41-14.4-14.65-27.77-30.8-34-40.45-13.39-19.32-2.35-11.91-28.19-37.83-34-33.3-65.31-60-100.86-95.34-25.16-25.31-48.81-49.62-72.4-73.59-11.79-12-23.57-23.89-35.51-35.8l-4-4L514,688.22c-2.39-2.29-4.74-4.48-6.94-6.45.19,5.5.47,10.92.88,15.63l.23,2.15.11,1,.06.5,0,1.54.36,12.48q.31,12.48.65,24.93.58,24.87.76,49.48c.18,32.76-.45,65-2.69,96.06-3.51,50.21-10.37,82.36-15.36,124.51-3.32,29.61-3.74,66.21-5.23,101.32-.3,7-1.68,12.54-2.68,20.09-4.95-39.55-1.67-73.64.05-124.8.3-7,1.34-10,2-15.06C487.17,975.06,486,960,485.5,944.54Z" transform="translate(-147.7 -150.98)"/>
        <path class="cls-9" d="M494.36,945.76c-1.53-49.27-7.11-65.11-7.74-143-.07-9,.57-18.53,1.2-28.07,1.3-14.54,3.73-23.11,4.7-35.14q1.32-22.4,2.63-44.38,1.2-18.48,2.37-36.76,8.14,8.92,16.28,17.84l7.4,8.11,3.55,3.88,1.82,2,2.31,2.48q18.54,19.8,37.47,39.56c25.31,26.38,51.41,52.85,79.07,79.89,50.4,49.65,91.73,91.4,131.85,132l60.24,61,31.28,31.49,24,24-62.87,24C738.7,1119.86,666.78,1148,577,1183.7c-28.24,10.83-96.32,41.77-125.53,51-12.25,3.44-102,42.58-89.81,35.75S380,1260,396,1252.63c72.77-33.31,125.36-59.17,200-92.76,77-34.77,154.15-56.07,231.35-84.09,13-4.78,25.58-9.53,37.9-14.26l4.6-1.77,1-.39.21-.09.41-.19,1.57-.73c1-.48,1.88-.94,2.62-1.35-.93-.75-1.79-1.43-2.58-2l-1.12-.82-.52-.35a1.17,1.17,0,0,1-.15-.12l-.82-.78-1.64-1.55-26.16-24.82c-17.48-16.56-35.09-33.3-53.25-50.9-14.4-14.64-27.76-30.8-34-40.47-13.4-19.31-10.16-12.12-36-38-34-33.32-57.48-59.54-93-94.85-24.66-24.8-47.87-48.64-71-72.14l-17.35-17.58L520.8,695.16c-4.62-4.62-9.38-9.21-13.62-13.06.18,5.92.47,11.78.94,16.76l.22,2,0,.12v.27l0,.78.05,1.56.09,3.12.36,12.49q.32,12.48.64,24.92c.39,16.59.68,33.1.77,49.48.18,32.76-.45,65-2.69,96.07-3.51,50.16-10.37,82.34-15.37,124.5-3.32,29.59-3.73,66.2-5.23,101.33-.3,7-1.67,12.53-2.68,20-4.95-39.51.57-61.67,2.29-112.78.3-7,3.19-13.09,3.86-18.07C488.21,1044.88,494.36,945.76,494.36,945.76Z" transform="translate(-147.7 -150.98)"/>
      </g>
    </g>
  </g>
</svg>
